<?xml version="1.0" standalone="no"?>
<svg xmlns:xlink="http://www.w3.org/1999/xlink" id="wave" style="transform:rotate(0deg); transition: 0.3s" viewBox="0 0 1440 320" version="1.1" xmlns="http://www.w3.org/2000/svg"><defs><linearGradient id="sw-gradient-0" x1="0" x2="0" y1="1" y2="0"><stop stop-color="rgba(224.351, 62, 243, 1)" offset="0%"/><stop stop-color="rgba(105.879, 11, 255, 1)" offset="100%"/></linearGradient></defs><path style="transform:translate(0, 0px); opacity:1" fill="url(#sw-gradient-0)" d="M0,96L18.5,90.7C36.9,85,74,75,111,69.3C147.7,64,185,64,222,90.7C258.5,117,295,171,332,176C369.2,181,406,139,443,122.7C480,107,517,117,554,133.3C590.8,149,628,171,665,165.3C701.5,160,738,128,775,112C812.3,96,849,96,886,96C923.1,96,960,96,997,112C1033.8,128,1071,160,1108,154.7C1144.6,149,1182,107,1218,85.3C1255.4,64,1292,64,1329,74.7C1366.2,85,1403,107,1440,117.3C1476.9,128,1514,128,1551,122.7C1587.7,117,1625,107,1662,90.7C1698.5,75,1735,53,1772,48C1809.2,43,1846,53,1883,64C1920,75,1957,85,1994,112C2030.8,139,2068,181,2105,192C2141.5,203,2178,181,2215,176C2252.3,171,2289,181,2326,197.3C2363.1,213,2400,235,2437,213.3C2473.8,192,2511,128,2548,122.7C2584.6,117,2622,171,2640,197.3L2658.5,224L2658.5,320L2640,320C2621.5,320,2585,320,2548,320C2510.8,320,2474,320,2437,320C2400,320,2363,320,2326,320C2289.2,320,2252,320,2215,320C2178.5,320,2142,320,2105,320C2067.7,320,2031,320,1994,320C1956.9,320,1920,320,1883,320C1846.2,320,1809,320,1772,320C1735.4,320,1698,320,1662,320C1624.6,320,1588,320,1551,320C1513.8,320,1477,320,1440,320C1403.1,320,1366,320,1329,320C1292.3,320,1255,320,1218,320C1181.5,320,1145,320,1108,320C1070.8,320,1034,320,997,320C960,320,923,320,886,320C849.2,320,812,320,775,320C738.5,320,702,320,665,320C627.7,320,591,320,554,320C516.9,320,480,320,443,320C406.2,320,369,320,332,320C295.4,320,258,320,222,320C184.6,320,148,320,111,320C73.8,320,37,320,18,320L0,320Z"/></svg>